<?xml version="1.0" encoding="utf-8"?>
<!-- Generator: Adobe Illustrator 16.0.0, SVG Export Plug-In . SVG Version: 6.00 Build 0)  -->
<!DOCTYPE svg PUBLIC "-//W3C//DTD SVG 1.1//EN" "http://www.w3.org/Graphics/SVG/1.1/DTD/svg11.dtd">
<svg version="1.1" id="Layer_1" xmlns="http://www.w3.org/2000/svg" xmlns:xlink="http://www.w3.org/1999/xlink" x="0px" y="0px"
	 width="606.74px" height="118.75px" viewBox="0 0 606.74 118.75" enable-background="new 0 0 606.74 118.75" xml:space="preserve">
<path fill="#FF6633" d="M88.871,12.769l-5.279,24.525L68.439,95.131h-7.021l9.794-58.023l6.474-29.924
	c-6.229-2.3-12.959-3.558-19.986-3.558C25.831,3.627,0,29.458,0,61.322c0,29.996,22.896,54.642,52.158,57.429l2.237-10.315h15.707
	l-2.191,9.683c26.99-4.821,47.479-28.413,47.479-56.793C115.39,40.943,104.823,23.033,88.871,12.769z"/>
<g>
	<path fill="#545F61" d="M146.118,17.829h67.43l-1.544,7.226h-29.339l-18.146,82.472h-8.75l18.146-82.472h-29.34L146.118,17.829z"/>
	<path fill="#545F61" d="M195.636,77.005c-0.772,3.488-1.029,6.79-0.772,9.904c0.258,3.114,1.072,5.813,2.445,8.098
		c1.372,2.285,3.32,4.111,5.854,5.481c2.528,1.369,5.644,2.056,9.329,2.056c5.062,0,9.671-1.286,13.833-3.862
		c4.159-2.572,7.354-6.229,9.587-10.963h8.622c-1.632,3.074-3.497,5.918-5.599,8.534c-2.104,2.616-4.525,4.901-7.271,6.853
		c-2.747,1.951-5.835,3.473-9.266,4.547c-3.436,1.078-7.25,1.619-11.453,1.619c-5.319,0-9.716-0.871-13.189-2.612
		c-3.476-1.743-6.135-4.134-7.979-7.162c-1.846-3.031-2.896-6.604-3.152-10.715c-0.257-4.11,0.129-8.533,1.158-13.271
		c1.029-4.734,2.702-9.177,5.021-13.33c2.312-4.153,5.125-7.788,8.429-10.899c3.303-3.115,7.034-5.563,11.196-7.351
		c4.156-1.785,8.642-2.679,13.443-2.679c9.183,0,15.723,3.052,19.624,9.157c3.902,6.104,4.523,14.971,1.865,26.598L195.636,77.005
		L195.636,77.005z M240.547,70.775c0.688-3.155,0.878-6.123,0.579-8.907c-0.303-2.782-1.095-5.19-2.381-7.226
		c-1.287-2.034-3.134-3.653-5.533-4.858c-2.399-1.203-5.316-1.807-8.75-1.807c-3.433,0-6.585,0.623-9.458,1.869
		c-2.875,1.246-5.469,2.908-7.782,4.983c-2.316,2.077-4.333,4.485-6.052,7.226c-1.717,2.741-3.088,5.649-4.114,8.721H240.547
		L240.547,70.775z"/>
	<path fill="#545F61" d="M264.61,87.346c0.084,5.565,1.437,9.49,4.054,11.773c2.615,2.285,6.84,3.426,12.675,3.426
		c2.831,0,5.344-0.331,7.527-0.996c2.188-0.664,4.074-1.558,5.662-2.679c1.586-1.121,2.874-2.388,3.86-3.8
		c0.98-1.411,1.646-2.906,1.995-4.485c0.686-3.155,0.146-5.501-1.608-7.039c-1.759-1.536-4.144-2.741-7.146-3.612
		c-3.004-0.873-6.263-1.621-9.776-2.244c-3.521-0.623-6.736-1.557-9.65-2.803c-2.917-1.246-5.17-3.031-6.757-5.357
		c-1.589-2.319-1.909-5.604-0.965-9.837c1.2-5.398,4.202-9.821,9.008-13.268c4.804-3.445,10.938-5.17,18.402-5.17
		c7.206,0,12.695,1.558,16.471,4.672c3.774,3.115,5.36,8.328,4.761,15.639h-7.85c0.342-4.983-0.858-8.495-3.603-10.528
		c-2.747-2.034-6.521-3.052-11.326-3.052c-4.892,0-8.857,1.018-11.901,3.052c-3.046,2.036-4.912,4.715-5.602,8.036
		c-0.515,2.162-0.301,3.947,0.646,5.357c0.943,1.412,2.315,2.575,4.118,3.487c1.803,0.915,3.899,1.685,6.307,2.306
		c2.4,0.622,4.867,1.245,7.398,1.868c2.525,0.623,4.975,1.353,7.334,2.183s4.396,1.932,6.113,3.303
		c1.715,1.367,2.959,3.095,3.729,5.17c0.772,2.074,0.814,4.65,0.128,7.724c-0.688,3.074-1.952,5.794-3.796,8.161
		c-1.846,2.365-4.162,4.342-6.949,5.917c-2.788,1.579-5.918,2.765-9.394,3.552c-3.479,0.787-7.188,1.186-11.132,1.186
		c-3.946,0-7.314-0.562-10.104-1.682c-2.789-1.121-5.041-2.682-6.757-4.674c-1.717-1.992-2.896-4.316-3.538-6.979
		c-0.646-2.656-0.708-5.521-0.193-8.598h7.854L264.61,87.346L264.61,87.346z"/>
	<path fill="#545F61" d="M344.492,107.777c-0.94,0.166-2.252,0.455-3.926,0.871c-1.672,0.416-3.453,0.623-5.34,0.623
		c-3.861,0-6.585-0.938-8.171-2.806c-1.588-1.866-1.865-5.212-0.836-10.026l10.294-47.215h-9.396l1.416-6.229h9.396l3.988-17.939
		h7.721l-3.988,17.939h12.482l-1.416,6.229h-12.482l-9.646,44.226c-0.351,1.579-0.604,2.948-0.773,4.11
		c-0.172,1.164-0.105,2.119,0.193,2.861c0.299,0.748,0.854,1.289,1.674,1.62c0.812,0.333,2.035,0.498,3.666,0.498
		c1.025,0,2.08-0.082,3.147-0.249c1.072-0.165,2.166-0.374,3.283-0.623L344.492,107.777z"/>
	<path fill="#545F61" d="M396.708,69.904c1.462-0.166,3.237-0.416,5.346-0.748c2.102-0.331,3.881-0.789,5.34-1.371
		c1.457-0.58,2.465-1.557,3.021-2.928c0.561-1.371,0.97-2.64,1.228-3.801c0.428-1.914,0.516-3.658,0.258-5.231
		c-0.258-1.577-0.924-2.947-1.994-4.111c-1.074-1.162-2.574-2.075-4.504-2.741c-1.932-0.664-4.396-0.997-7.399-0.997
		c-5.316,0-9.949,1.04-13.896,3.115c-3.947,2.077-6.865,5.898-8.752,11.462h-7.854c1.115-3.82,2.728-7.081,4.826-9.781
		c2.104-2.698,4.568-4.899,7.4-6.603c2.83-1.702,5.938-2.947,9.328-3.738c3.389-0.788,6.885-1.184,10.483-1.184
		c3.351,0,6.412,0.354,9.201,1.059c2.787,0.707,5.104,1.828,6.949,3.364c1.844,1.538,3.107,3.593,3.795,6.167
		c0.688,2.575,0.646,5.73-0.129,9.468l-7.721,35.133c-0.688,2.908-0.578,4.756,0.318,5.543c0.899,0.791,3.106,0.604,6.627-0.561
		l-1.283,5.855c-0.604,0.166-1.523,0.414-2.771,0.746s-2.426,0.5-3.539,0.5c-1.116,0-2.229-0.125-3.346-0.375
		c-2.49-0.416-3.904-1.562-4.246-3.429c-0.346-1.866-0.303-3.926,0.127-6.163c-4.033,3.483-8.344,6.146-12.932,7.973
		c-4.592,1.826-9.33,2.74-14.223,2.74c-2.918,0-5.644-0.373-8.173-1.121c-2.528-0.748-4.649-1.91-6.37-3.487
		c-1.718-1.577-2.916-3.509-3.603-5.794c-0.688-2.282-0.688-5.002,0-8.159c2.313-10.963,11.494-17.442,27.537-19.435L396.708,69.904
		z M408.934,73.643c-3.604,1.33-7.1,2.201-10.488,2.615c-3.391,0.417-6.801,0.748-10.229,0.997
		c-6.007,0.417-10.918,1.703-14.734,3.862c-3.818,2.16-6.199,5.441-7.143,9.842c-0.435,1.993-0.39,3.719,0.129,5.17
		c0.516,1.454,1.352,2.659,2.51,3.613c1.158,0.955,2.553,1.662,4.182,2.117c1.629,0.457,3.351,0.686,5.148,0.686
		c3.088,0,6.154-0.374,9.201-1.121c3.043-0.746,5.875-1.889,8.487-3.426c2.615-1.536,4.867-3.488,6.761-5.855
		c1.887-2.367,3.217-5.17,3.985-8.408L408.934,73.643z"/>
	<path fill="#545F61" d="M439.504,107.527h-7.726l14.156-64.533h7.721l-2.703,12.084h0.263c3.26-5.148,6.815-8.74,10.68-10.776
		c3.861-2.034,8.578-3.052,14.156-3.052l-1.808,8.098c-4.289-0.082-8,0.582-11.131,1.993c-3.133,1.413-5.791,3.323-7.979,5.731
		c-2.188,2.41-3.988,5.254-5.404,8.533c-1.416,3.283-2.51,6.709-3.281,10.277L439.504,107.527z"/>
	<path fill="#545F61" d="M474.403,107.527l14.154-64.533h7.723l-14.156,64.533H474.403z M491.26,28.917l2.44-11.088h8.492
		l-2.44,11.088H491.26z"/>
	<path fill="#545F61" d="M528.932,109.271c-4.291-0.084-8.129-0.83-11.516-2.242c-3.396-1.41-6.183-3.528-8.365-6.354
		c-2.188-2.821-3.625-6.354-4.312-10.59c-0.687-4.235-0.432-9.176,0.771-14.823c1.024-4.734,2.639-9.158,4.826-13.27
		c2.187-4.111,4.905-7.703,8.172-10.776c3.258-3.072,7.012-5.501,11.26-7.288c4.246-1.785,8.943-2.679,14.09-2.679
		c5.232,0,9.588,0.894,13.062,2.679c3.475,1.787,6.151,4.195,8.043,7.226c1.887,3.033,3.002,6.625,3.346,10.778
		c0.342,4.152,0,8.596-1.029,13.33c-1.11,5.149-2.875,9.801-5.271,13.952c-2.402,4.154-5.275,7.726-8.621,10.716
		c-3.346,2.988-7.104,5.295-11.26,6.914C537.965,108.462,533.565,109.271,528.932,109.271z M559.049,75.262
		c0.771-3.82,1.108-7.392,1.024-10.715c-0.088-3.32-0.752-6.208-1.996-8.658c-1.239-2.449-3.133-4.38-5.657-5.793
		c-2.531-1.412-5.854-2.118-9.978-2.118c-4.033,0-7.656,0.769-10.873,2.305c-3.217,1.538-6.022,3.572-8.43,6.104
		c-2.402,2.535-4.375,5.441-5.918,8.72c-1.545,3.283-2.703,6.666-3.479,10.151c-0.854,3.985-1.153,7.661-0.896,11.024
		c0.256,3.359,1.066,6.251,2.438,8.654c1.373,2.41,3.324,4.279,5.855,5.605c2.529,1.329,5.641,1.993,9.33,1.993
		c4.031,0,7.656-0.767,10.873-2.306c3.217-1.535,6.004-3.592,8.364-6.166c2.354-2.573,4.312-5.481,5.854-8.723
		C557.114,82.113,558.272,78.75,559.049,75.262z"/>
</g>
<g>
	<path fill="#545F61" d="M591.887,20.543c-0.57,1.349-1.354,2.523-2.354,3.522c-1,1-2.179,1.784-3.537,2.354
		c-1.354,0.569-2.823,0.854-4.401,0.854c-1.58,0-3.048-0.285-4.407-0.854c-1.359-0.57-2.538-1.354-3.538-2.354
		c-0.999-0.999-1.783-2.173-2.354-3.522c-0.567-1.35-0.854-2.812-0.854-4.392c0-1.559,0.285-3.017,0.854-4.376
		c0.566-1.359,1.354-2.543,2.354-3.552c1-1.009,2.179-1.799,3.538-2.368S580.01,5,581.594,5c1.578,0,3.047,0.285,4.401,0.854
		c1.358,0.569,2.537,1.359,3.537,2.368c0.999,1.009,1.783,2.193,2.354,3.552c0.564,1.359,0.854,2.818,0.854,4.376
		C592.74,17.731,592.456,19.194,591.887,20.543z M590.282,12.404c-0.479-1.159-1.139-2.168-1.979-3.028
		c-0.839-0.858-1.833-1.538-2.982-2.038c-1.146-0.5-2.394-0.75-3.729-0.75c-1.359,0-2.613,0.25-3.768,0.75
		c-1.146,0.5-2.144,1.18-2.979,2.038c-0.84,0.86-1.494,1.869-1.964,3.028c-0.475,1.159-0.704,2.409-0.704,3.747
		c0,1.339,0.229,2.588,0.704,3.748c0.47,1.16,1.124,2.168,1.964,3.027c0.839,0.859,1.833,1.539,2.979,2.039
		c1.149,0.5,2.403,0.75,3.768,0.75c1.338,0,2.582-0.25,3.729-0.75c1.149-0.5,2.146-1.179,2.982-2.039
		c0.84-0.859,1.499-1.868,1.979-3.027c0.48-1.159,0.725-2.408,0.725-3.748C591.006,14.813,590.762,13.563,590.282,12.404z
		 M584.573,11.565c-0.688-0.6-1.585-0.91-2.684-0.93c-0.799,0-1.509,0.14-2.128,0.42c-0.62,0.28-1.145,0.669-1.562,1.169
		s-0.729,1.084-0.938,1.754c-0.21,0.669-0.315,1.394-0.315,2.173c0,0.779,0.105,1.504,0.315,2.173
		c0.209,0.67,0.521,1.254,0.938,1.754c0.42,0.5,0.939,0.89,1.562,1.169c0.619,0.28,1.329,0.42,2.128,0.42
		c1.099,0,1.994-0.305,2.684-0.914c0.69-0.609,1.124-1.364,1.309-2.264h1.524c-0.101,0.719-0.311,1.364-0.63,1.934
		c-0.32,0.569-0.729,1.045-1.229,1.424c-0.5,0.38-1.065,0.67-1.694,0.87c-0.63,0.2-1.294,0.3-1.993,0.3
		c-1.02,0-1.934-0.17-2.743-0.51c-0.809-0.34-1.484-0.819-2.039-1.439c-0.55-0.619-0.974-1.349-1.271-2.188
		c-0.3-0.839-0.45-1.749-0.45-2.728c0-0.999,0.15-1.913,0.45-2.743c0.3-0.829,0.724-1.554,1.271-2.173
		c0.555-0.619,1.229-1.099,2.039-1.439c0.812-0.339,1.729-0.509,2.743-0.509c0.699,0,1.363,0.1,1.993,0.299
		c0.629,0.2,1.194,0.49,1.694,0.87c0.499,0.379,0.903,0.854,1.229,1.424c0.319,0.569,0.529,1.214,0.63,1.934h-1.524
		C585.697,12.914,585.262,12.165,584.573,11.565z"/>
</g>
</svg>
